<?xml version="1.0" encoding="utf-8"?>
<!-- Generator: Adobe Illustrator 23.0.0, SVG Export Plug-In . SVG Version: 6.00 Build 0)  -->
<svg version="1.1" id="Capa_1" xmlns="http://www.w3.org/2000/svg" xmlns:xlink="http://www.w3.org/1999/xlink" x="0px" y="0px"
	 viewBox="0 0 200 200" style="enable-background:new 0 0 200 200;" xml:space="preserve">
<style type="text/css">
	.st0{fill:#FFFFFF;}
</style>
<title>find-a-dealer</title>
<path class="st0" d="M119.2,151.2c13.9-23.2,29.8-50.7,34.6-62.5c2.8-6.9,4.2-14.2,4.2-21.7c0-31.9-25.9-57.8-57.8-57.8
	S42.3,35,42.3,67c0,0,0,0,0,0c0,7.4,1.4,14.8,4.2,21.7c7.5,18.5,41.9,75,53.6,93.9c2-3.3,4.8-7.7,7.9-12.9l10.8,0
	c-8,13.2-14.1,23-14.8,24.1l-3.9,6.2l-3.9-6.2c-2-3.2-48.9-78.6-58.2-101.6c-3.2-8-4.9-16.5-4.9-25.1c0-37,30-67,67-67s67,30,67,67
	c0,8.6-1.6,17.1-4.9,25.1c-4.7,11.6-19.1,36.8-32.4,59.2L119.2,151.2z"/>
<path class="st0" d="M100.1,92.4c-14,0-25.4-11.4-25.4-25.4s11.4-25.4,25.4-25.4c14,0,25.4,11.4,25.4,25.4
	C125.5,81,114.2,92.4,100.1,92.4z M100.1,50.8c-9,0-16.2,7.3-16.2,16.2c0,9,7.3,16.2,16.2,16.2c9,0,16.2-7.3,16.2-16.2
	C116.4,58.1,109.1,50.8,100.1,50.8z"/>
</svg>
