<?xml version="1.0" encoding="utf-8"?>
<!-- Generator: Adobe Illustrator 23.0.0, SVG Export Plug-In . SVG Version: 6.00 Build 0)  -->
<svg version="1.1" id="Capa_1" xmlns="http://www.w3.org/2000/svg" xmlns:xlink="http://www.w3.org/1999/xlink" x="0px" y="0px"
	 viewBox="0 0 200 200" style="enable-background:new 0 0 200 200;" xml:space="preserve">
<style type="text/css">
	.st0{fill:#EA5D1A;}
</style>
<title>configure</title>
<path class="st0" d="M59.6,171.1c-4.3,0-8.5-0.5-12.7-1.4l-2.9-0.6l-1.8-12.9c-0.7-0.3-1.3-0.5-2-0.8l-10.4,7.8l-2.5-1.6
	c-7.2-4.6-13.2-10.7-17.9-17.9l-1.6-2.5l7.8-10.4c-0.3-0.7-0.6-1.3-0.8-2L2,127l-0.6-2.9c-1.8-8.3-1.8-17,0-25.3L2,95.9l12.9-1.8
	c0.3-0.7,0.5-1.3,0.8-2L7.9,81.7l1.6-2.5c4.6-7.2,10.7-13.3,17.9-17.9l2.5-1.6l10.4,7.8c0.7-0.3,1.3-0.6,2-0.8l1.8-12.9l2.9-0.6
	c8.3-1.8,16.9-1.8,25.2,0l2.9,0.6L77,66.7c0.7,0.3,1.3,0.5,2,0.8l10.4-7.8l2.5,1.6c7.2,4.6,13.3,10.7,17.9,17.9l-7.1,4.6
	c-3.4-5.3-7.8-10-12.9-13.7l-9.8,7.3l-2.4-1.2c-1.8-0.9-3.8-1.7-5.7-2.4l-2.5-0.8L67.6,61c-5.3-0.8-10.7-0.8-15.9,0l-1.7,12.1
	l-2.5,0.8c-2,0.6-3.9,1.4-5.7,2.4l-2.4,1.2l-9.8-7.3c-4.3,3.2-8.1,7-11.3,11.3l7.3,9.8l-1.2,2.4c-0.9,1.8-1.7,3.8-2.4,5.7l-0.8,2.5
	l-12.1,1.7c-0.8,5.3-0.8,10.7,0,15.9l12.1,1.7l0.8,2.5c0.6,2,1.4,3.9,2.4,5.7l1.2,2.4l-7.3,9.8c3.2,4.3,7,8.1,11.3,11.3l9.8-7.3
	l2.4,1.2c1.8,0.9,3.7,1.7,5.7,2.4l2.5,0.8l1.7,12.1c5.3,0.8,10.7,0.8,15.9,0l1.7-12.1l2.5-0.8c2-0.6,3.9-1.4,5.7-2.4l2.4-1.2
	l9.8,7.3c4.3-3.2,8.1-7,11.3-11.3l-7.3-9.8l1.2-2.4c0.9-1.8,1.7-3.7,2.4-5.7l0.8-2.5l12.1-1.7c1-6.3,0.8-12.6-0.5-18.8l-0.6-2.9
	l19.8-12.9l2.3,3.6c2,3.1,4.6,5.9,7.5,8.2l6.4-4.8l2.4,1.2c1.2,0.6,2.4,1.1,3.6,1.5l2.5,0.8l1.2,7.9c2.7,0.3,5.5,0.3,8.2,0l1.1-7.9
	l2.5-0.8c1.2-0.4,2.5-0.9,3.6-1.5l2.4-1.2l6.4,4.8c2.2-1.7,4.1-3.7,5.8-5.8l-4.8-6.4l1.2-2.4c0.6-1.2,1.1-2.4,1.5-3.6l0.8-2.5
	l7.9-1.2c0.3-2.7,0.3-5.5,0-8.2l-7.9-1.1l-0.8-2.5c-0.4-1.2-0.9-2.4-1.5-3.6l-1.2-2.4l4.8-6.4c-1.7-2.2-3.7-4.1-5.8-5.8l-6.4,4.8
	l-2.4-1.2c-1.2-0.6-2.4-1.1-3.6-1.5l-2.5-0.8l-1.2-7.9c-1.4-0.2-2.7-0.2-4.1-0.2c-1.4,0-2.7,0.1-4.1,0.3l-1.1,7.9l-2.5,0.8
	c-1.2,0.4-2.5,0.9-3.6,1.5l-2.4,1.2l-6.4-4.8c-2.2,1.7-4.1,3.7-5.8,5.8l4.8,6.4l-1.2,2.4c-0.6,1.2-1.1,2.4-1.5,3.6l-0.8,2.5
	l-7.9,1.2c-0.4,3.7-0.3,7.5,0.5,11.1l-8.3,1.8c-1.3-5.8-1.3-11.7-0.1-17.5l0.6-2.9l8.7-1.3l-5.3-7l1.6-2.5c3.2-5,7.4-9.2,12.4-12.5
	l2.5-1.6l7,5.2l1.2-8.7l2.9-0.6c2.9-0.6,5.8-1,8.8-1c3,0,5.9,0.3,8.8,0.9l2.9,0.6l1.3,8.7l7-5.3l2.5,1.6c5,3.2,9.2,7.4,12.5,12.4
	l1.6,2.5l-5.2,7l8.7,1.2l0.6,2.9c1.3,5.8,1.3,11.8,0.1,17.6l-0.6,2.9l-8.7,1.3l5.3,7l-1.6,2.5c-3.2,5-7.4,9.2-12.4,12.5l-2.5,1.6
	l-7-5.2l-1.2,8.7l-2.9,0.6c-2.9,0.6-5.8,0.9-8.8,1c-2.9,0-5.9-0.3-8.8-0.9l-2.9-0.6l-1.3-8.7l-7,5.3l-2.5-1.6
	c-3.8-2.4-7.1-5.4-10-8.9l-8,5.2c1.2,7.4,1,15-0.5,22.4l-0.6,2.9l-12.9,1.8c-0.3,0.7-0.5,1.3-0.8,2l7.8,10.4l-1.6,2.5
	c-4.6,7.2-10.7,13.3-17.9,17.9l-2.5,1.6L79,155.4c-0.7,0.3-1.3,0.6-2,0.8l-1.8,12.9l-2.9,0.6C68.1,170.6,63.9,171.1,59.6,171.1z"/>
</svg>
