<svg xmlns="http://www.w3.org/2000/svg" viewBox="0 0 24 24"><defs><style>.cls-1{fill:#e95f1b;}.cls-2{fill:none;}</style></defs><title>find_dealer</title><g id="Capa_2" data-name="Capa 2"><g id="Capa_1-2" data-name="Capa 1"><g id="M_310_Global_Header" data-name="M 310 Global Header"><g id="M_310_Global_Header_cars-menu_M_310_Global_Header-cars-menu-XL" data-name="M_310_Global_Header/cars-menu/M_310_Global_Header-cars-menu-XL"><g id="menu_up" data-name="menu up"><g id="comtact"><g id="Group-6"><g id="Group-Copy-2"><g id="Group-2"><path id="Fill-1" class="cls-1" d="M14.29,18.15a80.46,80.46,0,0,0,4.14-7.51A6.77,6.77,0,0,0,18.94,8a6.94,6.94,0,1,0-13.38,2.6c.9,2.22,5,9,6.44,11.27L13,20.36h1.29c-1,1.59-1.69,2.76-1.77,2.89L12,24l-.47-.75c-.24-.38-5.87-9.44-7-12.2A8,8,0,1,1,20,8a8.15,8.15,0,0,1-.58,3,79.16,79.16,0,0,1-3.89,7.1Z"/><path id="Fill-4" class="cls-1" d="M12,6.1A1.95,1.95,0,1,0,14,8,2,2,0,0,0,12,6.1m0,5A3.05,3.05,0,1,1,15.05,8,3.06,3.06,0,0,1,12,11.09"/></g></g></g></g></g></g></g><rect class="cls-2" width="24" height="24"/></g></g></svg>